<svg width="21" height="21" viewBox="0 0 21 21" fill="none" xmlns="http://www.w3.org/2000/svg">
<path d="M20.7429 19.5086L15.6943 14.46C16.9457 12.9343 17.7 10.98 17.7 8.85C17.7 3.96429 13.7357 0 8.85 0C3.96 0 0 3.96429 0 8.85C0 13.7357 3.96 17.7 8.85 17.7C10.98 17.7 12.93 16.95 14.4557 15.6986L19.5043 20.7429C19.8471 21.0857 20.4 21.0857 20.7429 20.7429C21.0857 20.4043 21.0857 19.8471 20.7429 19.5086ZM8.85 15.9386C4.93714 15.9386 1.75714 12.7586 1.75714 8.85C1.75714 4.94143 4.93714 1.75714 8.85 1.75714C12.7586 1.75714 15.9429 4.94143 15.9429 8.85C15.9429 12.7586 12.7586 15.9386 8.85 15.9386Z" fill="#C4C4C4"/>
</svg>
