<svg width="39" height="24" viewBox="0 0 39 24" fill="none" xmlns="http://www.w3.org/2000/svg">
<path d="M39 22.5006L39 18.7504L39 5.25017L39 1.50006C39 0.675014 38.415 -2.55711e-08 37.7 -5.68257e-08L33.8 -2.27299e-07C33.085 -2.58554e-07 32.5 0.675014 32.5 1.50006L32.5 5.25017L32.5 7.50021L22.7082 7.50021L22.75 6.8252C22.815 6.37519 22.555 6.00015 22.165 6.00015C21.775 5.92518 21.45 6.22516 21.45 6.67517L21.3993 7.50021L20.1082 7.50021L20.15 6.8252C20.2149 6.37519 19.955 6.00015 19.565 6.00015C19.175 5.92518 18.85 6.22516 18.85 6.67517L18.7992 7.50021L17.5081 7.50021L17.5499 6.8252C17.6149 6.37519 17.3549 6.00015 16.9649 6.00015C16.5749 5.92518 16.2499 6.22516 16.2499 6.67517L16.1992 7.50021L14.9081 7.50021L14.9499 6.8252C15.0149 6.37519 14.7549 6.00015 14.3649 6.00015C13.9749 5.92518 13.6499 6.22516 13.6499 6.67517L13.5991 7.50021L12.308 7.50021L12.3499 6.8252C12.4148 6.37519 12.1549 6.00015 11.7649 6.00015C11.3749 5.92518 11.0498 6.22516 11.0498 6.67517L10.9991 7.50021L9.70799 7.50021L9.75011 6.8252C9.81509 6.37519 9.55512 6.00015 9.16512 6.00015C8.77512 5.92518 8.4501 6.22516 8.4501 6.67517L8.39936 7.50021L7.10826 7.50021L7.15007 6.8252C7.21505 6.37519 6.95507 6.00015 6.56507 6.00015C6.17508 5.92518 5.85006 6.22516 5.85006 6.67517L5.79932 7.50021L4.50822 7.50021L4.55003 6.8252C4.61501 6.37519 4.29006 6.00015 3.96503 6.00015C3.57504 5.92518 3.25001 6.22516 3.25001 6.67517L3.19928 7.50021L1.30002 7.50021C0.584999 7.50021 -3.57351e-07 8.17523 -3.93415e-07 9.00027L-6.5569e-07 15.0004C-6.91754e-07 15.8255 0.584998 16.5005 1.30002 16.5005L2.64613 16.5005L2.60004 17.2505C2.60004 17.6255 2.86002 18.0005 3.18504 18.0005C3.57504 18.0754 3.90006 17.7755 3.90006 17.3254L3.95109 16.5004L5.24609 16.5004L5.2 17.2504C5.2 17.6254 5.45998 18.0004 5.785 18.0004C6.175 18.0753 6.50003 17.7754 6.50003 17.3254L6.55106 16.5003L7.84605 16.5003L7.79997 17.2503C7.79997 17.6253 8.05994 18.0003 8.38497 18.0003C8.77496 18.0753 9.09999 17.7753 9.09999 17.3253L9.15103 16.5002L10.446 16.5002L10.3999 17.2502C10.3999 17.6252 10.6599 18.0002 10.9849 18.0002C11.3749 18.0752 11.7 17.7752 11.7 17.3252L11.751 16.5001L13.046 16.5001L12.9999 17.2501C12.9999 17.6252 13.2599 18.0001 13.5849 18.0001C13.9749 18.0751 14.2999 17.7751 14.2999 17.3251L14.351 16.5001L15.6459 16.5001L15.5999 17.25C15.5999 17.6251 15.8598 18 16.1849 18C16.5749 18.075 16.8999 17.775 16.8999 17.325L16.9509 16.5L18.2459 16.5L18.1998 17.2499C18.1998 17.625 18.4598 17.9999 18.7848 17.9999C19.1748 18.0749 19.4998 17.7749 19.4998 17.3249L19.5509 16.4999L20.8459 16.4999L20.7998 17.2499C20.7998 17.6249 21.0598 17.9998 21.3848 17.9998C21.7748 18.0748 22.0998 17.7748 22.0998 17.3248L22.1508 16.4998L32.5001 16.4998L32.5001 18.7498L32.5001 22.4999C32.5001 23.325 33.085 24 33.8001 24L37.7001 24C38.415 24.0005 39 23.3255 39 22.5006ZM37.7 1.50006L37.7 4.50009L33.8 4.50009L33.8 1.50006L37.7 1.50006ZM37.7 6.00015L37.7 18.0004L33.8 18.0004L33.8 15.7503L33.8 8.2502L33.8 6.00015L37.7 6.00015ZM1.30017 15.0003L1.30017 9.00019L3.10727 9.00019L2.73844 15.0003L1.30017 15.0003ZM4.04402 15.0003L4.41544 9.00019L5.70716 9.00019L5.33833 15.0003L4.04402 15.0003ZM6.64407 15.0003L7.01548 9.00019L8.3072 9.00019L7.93837 15.0003L6.64407 15.0003ZM9.24403 15.0003L9.61544 9.00019L10.9072 9.00019L10.5383 15.0003L9.24403 15.0003ZM11.8441 15.0003L12.2155 9.00019L13.5072 9.00019L13.1384 15.0003L11.8441 15.0003ZM14.444 15.0003L14.8154 9.00019L16.1072 9.00019L15.7383 15.0003L14.444 15.0003ZM17.044 15.0003L17.4154 9.00019L18.7071 9.00019L18.3383 15.0003L17.044 15.0003ZM19.644 15.0003L20.0155 9.00019L21.3072 9.00019L20.9383 15.0003L19.644 15.0003ZM22.244 15.0003L22.6154 9.00019L32.5001 9.00019L32.5001 15.0003L22.244 15.0003ZM33.8 22.5006L33.8 19.5005L37.7 19.5005L37.7 22.5006L33.8 22.5006Z" fill="#004794"/>
</svg>
