<svg width="13" height="15" viewBox="0 0 13 15" fill="none" xmlns="http://www.w3.org/2000/svg">
<path d="M6.28078 12.7144L1.27353 5.94359L1.82702 5.53167L6.83426 12.3025C7.49455 13.1897 8.84444 13.3869 9.73083 12.7272C10.6463 12.0456 10.8369 10.7462 10.1556 9.83064L4.73644 2.50608C4.28165 1.89628 3.41609 1.76863 2.80527 2.22291C2.19481 2.67723 2.06777 3.54361 2.5221 4.15407L7.94128 11.4783C8.16825 11.7833 8.60197 11.8468 8.90704 11.6199C9.2121 11.3929 9.27552 10.9598 9.0486 10.6545L4.04135 3.88376L4.59483 3.47184L9.60208 10.2426C10.056 10.8533 9.92902 11.7193 9.31896 12.1734C8.70777 12.6283 7.84212 12.5007 7.38779 11.8902L1.96862 4.566C1.28733 3.65047 1.47786 2.35108 2.39335 1.66942C3.30911 0.988438 4.60784 1.17851 5.28993 2.09416L10.7091 9.41871C11.6177 10.6393 11.3636 12.3718 10.1428 13.2807C8.92152 14.1896 7.18913 13.9349 6.28078 12.7144Z" fill="black"/>
</svg>
