<svg width="31" height="31" viewBox="0 0 31 31" fill="none" xmlns="http://www.w3.org/2000/svg">
<g clip-path="url(#clip0)">
<path d="M2.70703 22.8443C2.70633 23.0918 2.83735 23.321 3.05199 23.4445L15.5242 30.6464C15.7374 30.77 16.0008 30.77 16.2141 30.6464L28.6863 23.4445C28.9009 23.321 29.0319 23.0918 29.0312 22.8443V8.44042C29.0326 8.25708 28.9602 8.08122 28.8311 7.95066C28.7876 7.90792 28.7393 7.87079 28.6863 7.84043L16.2141 0.638498C16.0008 0.514951 15.7374 0.514951 15.5242 0.638498L3.05199 7.84043C2.83735 7.96374 2.70633 8.19285 2.70703 8.44042V22.8443ZM15.8691 2.03185L27.6516 8.83371V22.4442L15.8691 29.2528L4.0866 22.4442V8.84072L15.8691 2.03185Z" fill="#004794"/>
<path d="M15.87 23.8308C20.3927 23.8294 24.0577 20.1622 24.0563 15.6403C24.0549 11.1178 20.3878 7.45276 15.8658 7.45416C11.3434 7.45533 7.67829 11.1225 7.67969 15.6445C7.68039 17.8139 8.54195 19.8953 10.0754 21.4302C11.6089 22.9721 13.6957 23.8369 15.87 23.8308ZM11.0412 10.8135C13.7013 8.15084 18.0168 8.14804 20.6797 10.8082C23.3424 13.468 23.3452 17.7838 20.6851 20.4465C18.0252 23.1094 13.7094 23.1119 11.0468 20.4521C9.76971 19.1764 9.05085 17.447 9.04758 15.6424C9.03917 13.831 9.75733 12.091 11.0412 10.8135Z" fill="#004794"/>
</g>
<defs>
<clipPath id="clip0">
<rect width="30.1835" height="30.1835" fill="white" transform="translate(0.742188 0.60553)"/>
</clipPath>
</defs>
</svg>
