<svg width="121" height="47" viewBox="0 0 121 47" fill="none" xmlns="http://www.w3.org/2000/svg">
<path opacity="0.9" d="M74.394 38.081C73.674 38.081 73.167 37.868 72.873 37.442C72.579 37.01 72.432 36.416 72.432 35.66V33.086C72.432 32.288 72.576 31.682 72.864 31.268C73.152 30.854 73.662 30.647 74.394 30.647C75.048 30.647 75.516 30.824 75.798 31.178C76.086 31.532 76.23 32.054 76.23 32.744V33.32H75.267V32.807C75.267 32.471 75.252 32.213 75.222 32.033C75.192 31.853 75.114 31.709 74.988 31.601C74.868 31.493 74.673 31.439 74.403 31.439C74.127 31.439 73.92 31.499 73.782 31.619C73.65 31.733 73.563 31.895 73.521 32.105C73.479 32.309 73.458 32.585 73.458 32.933V35.822C73.458 36.194 73.488 36.485 73.548 36.695C73.608 36.905 73.704 37.055 73.836 37.145C73.974 37.235 74.163 37.28 74.403 37.28C74.661 37.28 74.853 37.223 74.979 37.109C75.105 36.995 75.183 36.839 75.213 36.641C75.249 36.443 75.267 36.173 75.267 35.831V35.291H76.23V35.831C76.23 36.557 76.092 37.115 75.816 37.505C75.546 37.889 75.072 38.081 74.394 38.081ZM77.2888 30.71H80.1148V31.466H78.3058V33.878H79.7728V34.598H78.3058V37.271H80.1328V38H77.2888V30.71ZM81.0439 30.71H82.8529C83.4829 30.71 83.9389 30.881 84.2209 31.223C84.5089 31.565 84.6529 32.066 84.6529 32.726C84.6529 33.32 84.4999 33.782 84.1939 34.112C83.8879 34.442 83.4439 34.607 82.8619 34.607H82.0609V38H81.0439V30.71ZM82.5289 33.878C82.8289 33.878 83.0599 33.845 83.2219 33.779C83.3899 33.713 83.5099 33.599 83.5819 33.437C83.6539 33.275 83.6899 33.041 83.6899 32.735C83.6899 32.363 83.6629 32.09 83.6089 31.916C83.5549 31.742 83.4469 31.619 83.2849 31.547C83.1289 31.475 82.8799 31.439 82.5379 31.439H82.0609V33.878H82.5289ZM85.4581 30.71H87.1321C87.7921 30.71 88.2811 30.86 88.5991 31.16C88.9171 31.454 89.0761 31.913 89.0761 32.537C89.0761 33.467 88.7281 33.98 88.0321 34.076C88.4641 34.178 88.7791 34.382 88.9771 34.688C89.1751 34.988 89.2741 35.399 89.2741 35.921C89.2741 36.575 89.1181 37.085 88.8061 37.451C88.5001 37.817 88.0321 38 87.4021 38H85.4581V30.71ZM87.0781 33.752C87.4981 33.752 87.7891 33.662 87.9511 33.482C88.1131 33.296 88.1941 32.981 88.1941 32.537C88.1941 32.213 88.1431 31.976 88.0411 31.826C87.9451 31.67 87.7981 31.571 87.6001 31.529C87.4021 31.487 87.1081 31.466 86.7181 31.466H86.4751V33.752H87.0781ZM87.1591 37.271C87.4591 37.271 87.6901 37.226 87.8521 37.136C88.0201 37.04 88.1371 36.896 88.2031 36.704C88.2691 36.512 88.3021 36.251 88.3021 35.921C88.3021 35.453 88.2061 35.105 88.0141 34.877C87.8221 34.643 87.5101 34.526 87.0781 34.526H86.4751V37.271H87.1591ZM90.2678 30.71H91.1678V35.759L93.3008 30.71H94.0298V38H93.1388V32.87L91.0238 38H90.2678V30.71ZM97.0891 38.081C96.3691 38.081 95.8621 37.868 95.5681 37.442C95.2741 37.01 95.1271 36.416 95.1271 35.66V33.086C95.1271 32.288 95.2711 31.682 95.5591 31.268C95.8471 30.854 96.3571 30.647 97.0891 30.647C97.7431 30.647 98.2111 30.824 98.4931 31.178C98.7811 31.532 98.9251 32.054 98.9251 32.744V33.32H97.9621V32.807C97.9621 32.471 97.9471 32.213 97.9171 32.033C97.8871 31.853 97.8091 31.709 97.6831 31.601C97.5631 31.493 97.3681 31.439 97.0981 31.439C96.8221 31.439 96.6151 31.499 96.4771 31.619C96.3451 31.733 96.2581 31.895 96.2161 32.105C96.1741 32.309 96.1531 32.585 96.1531 32.933V35.822C96.1531 36.194 96.1831 36.485 96.2431 36.695C96.3031 36.905 96.3991 37.055 96.5311 37.145C96.6691 37.235 96.8581 37.28 97.0981 37.28C97.3561 37.28 97.5481 37.223 97.6741 37.109C97.8001 36.995 97.8781 36.839 97.9081 36.641C97.9441 36.443 97.9621 36.173 97.9621 35.831V35.291H98.9251V35.831C98.9251 36.557 98.7871 37.115 98.5111 37.505C98.2411 37.889 97.7671 38.081 97.0891 38.081Z" fill="#004794"/>
<path opacity="0.9" d="M43.286 37.982C42.626 37.982 42.152 37.805 41.864 37.451C41.582 37.097 41.441 36.575 41.441 35.885V35.525H42.404V35.813C42.404 36.143 42.419 36.401 42.449 36.587C42.479 36.767 42.557 36.914 42.683 37.028C42.809 37.136 43.007 37.19 43.277 37.19C43.547 37.19 43.748 37.13 43.88 37.01C44.018 36.89 44.108 36.725 44.15 36.515C44.192 36.305 44.213 36.026 44.213 35.678V34.526H42.935V33.86H44.213V32.798C44.213 32.426 44.183 32.135 44.123 31.925C44.063 31.715 43.964 31.565 43.826 31.475C43.694 31.385 43.511 31.34 43.277 31.34C43.019 31.34 42.827 31.397 42.701 31.511C42.575 31.625 42.494 31.781 42.458 31.979C42.422 32.177 42.404 32.447 42.404 32.789V33.104H41.441V32.78C41.441 32.054 41.579 31.499 41.855 31.115C42.131 30.731 42.608 30.539 43.286 30.539C44.006 30.539 44.51 30.755 44.798 31.187C45.092 31.613 45.239 32.204 45.239 32.96V35.534C45.239 36.338 45.095 36.947 44.807 37.361C44.519 37.775 44.012 37.982 43.286 37.982ZM46.324 30.71H47.341V33.86H49.213V30.71H50.23V38H49.213V34.589H47.341V38H46.324V30.71ZM51.4589 30.71H54.2849V31.466H52.4759V33.878H53.9429V34.598H52.4759V37.271H54.3029V38H51.4589V30.71ZM55.214 30.71H57.023C57.653 30.71 58.109 30.881 58.391 31.223C58.679 31.565 58.823 32.066 58.823 32.726C58.823 33.32 58.67 33.782 58.364 34.112C58.058 34.442 57.614 34.607 57.032 34.607H56.231V38H55.214V30.71ZM56.699 33.878C56.999 33.878 57.23 33.845 57.392 33.779C57.56 33.713 57.68 33.599 57.752 33.437C57.824 33.275 57.86 33.041 57.86 32.735C57.86 32.363 57.833 32.09 57.779 31.916C57.725 31.742 57.617 31.619 57.455 31.547C57.299 31.475 57.05 31.439 56.708 31.439H56.231V33.878H56.699ZM59.6282 30.71H62.4002V31.466H60.6452V38H59.6282V30.71ZM65.0529 38.081C64.3389 38.081 63.8259 37.88 63.5139 37.478C63.2079 37.07 63.0549 36.482 63.0549 35.714V32.951C63.0549 32.195 63.2109 31.622 63.5229 31.232C63.8349 30.842 64.3449 30.647 65.0529 30.647C65.7609 30.647 66.2679 30.845 66.5739 31.241C66.8859 31.631 67.0419 32.201 67.0419 32.951V35.723C67.0419 36.479 66.8859 37.061 66.5739 37.469C66.2619 37.877 65.7549 38.081 65.0529 38.081ZM65.0529 37.28C65.4309 37.28 65.6859 37.169 65.8179 36.947C65.9499 36.725 66.0159 36.389 66.0159 35.939V32.744C66.0159 32.3 65.9499 31.973 65.8179 31.763C65.6859 31.547 65.4309 31.439 65.0529 31.439C64.6689 31.439 64.4109 31.547 64.2789 31.763C64.1469 31.973 64.0809 32.3 64.0809 32.744V35.939C64.0809 36.389 64.1469 36.725 64.2789 36.947C64.4109 37.169 64.6689 37.28 65.0529 37.28Z" fill="#004794"/>
<path d="M41.512 7.99H45.187L47.287 18.721L49.513 7.99H53.062L53.377 25H50.857L50.584 13.45L48.4 25H46.258L44.011 13.387L43.759 25H41.218L41.512 7.99ZM57.1426 7.99H64.5556V10.384H60.5866V14.899H63.6526V17.314H60.5866V22.648H64.5976V25H57.1426V7.99ZM69.2271 10.552H66.6021V7.99H75.2961V10.552H72.7131V25H69.2271V10.552ZM78.1411 7.99H80.9131V18.175L85.4071 7.99H87.6751V25H84.8611V14.647L80.3251 25H78.1411V7.99ZM95.7407 25.294C94.1167 25.294 92.9477 24.846 92.2337 23.95C91.5197 23.054 91.1627 21.787 91.1627 20.149V19.561H94.3967C94.3967 19.827 94.4037 20.037 94.4177 20.191C94.4317 21.045 94.5297 21.654 94.7117 22.018C94.9077 22.382 95.2647 22.564 95.7827 22.564C96.3007 22.564 96.6507 22.375 96.8327 21.997C97.0147 21.605 97.1057 20.982 97.1057 20.128C97.1057 19.218 96.9517 18.539 96.6437 18.091C96.3357 17.643 95.7757 17.405 94.9637 17.377H94.0817V15.172H94.9007C95.7407 15.158 96.3147 14.941 96.6227 14.521C96.9447 14.087 97.1057 13.415 97.1057 12.505C97.1057 11.791 96.9867 11.252 96.7487 10.888C96.5247 10.524 96.1537 10.342 95.6357 10.342C95.1317 10.342 94.7677 10.531 94.5437 10.909C94.3337 11.273 94.2147 11.798 94.1867 12.484V13.345H90.9317V12.421C90.9317 10.951 91.3517 9.81 92.1917 8.998C93.0317 8.172 94.1727 7.759 95.6147 7.759C97.0987 7.759 98.2467 8.151 99.0587 8.935C99.8847 9.719 100.298 10.846 100.298 12.316C100.298 13.296 100.095 14.129 99.6887 14.815C99.2827 15.487 98.7647 15.907 98.1347 16.075C99.5767 16.607 100.298 17.93 100.298 20.044C100.298 21.696 99.9337 22.984 99.2057 23.908C98.4777 24.832 97.3227 25.294 95.7407 25.294Z" fill="#DC1635"/>
<path d="M9.44823 38.1864L0.945318 23.7308L9.44823 9.27521L26.4703 9.27521L34.9732 23.7308L26.4703 38.1864L9.44823 38.1864Z" fill="#004794" stroke="#004794"/>
<path d="M17.9594 13.6785C23.6436 13.6785 28.2196 18.1965 28.2196 23.7308C28.2196 29.265 23.6436 33.7831 17.9594 33.7831C12.2752 33.7831 7.69922 29.265 7.69922 23.7308C7.69922 18.1965 12.2752 13.6785 17.9594 13.6785Z" stroke="white" stroke-width="2"/>
<path d="M17.9572 16.0961C22.281 16.0961 25.7542 19.5318 25.7542 23.7307C25.7542 27.9297 22.281 31.3654 17.9572 31.3654C13.6333 31.3654 10.1602 27.9297 10.1602 23.7308C10.1602 19.5318 13.6333 16.0961 17.9572 16.0961Z" fill="white" stroke="white" stroke-width="2"/>
<path d="M17.959 9.37923C26.0482 9.37923 32.5899 15.8134 32.5899 23.7308C32.5899 31.6481 26.0482 38.0823 17.959 38.0823C9.86976 38.0823 3.32812 31.6481 3.32812 23.7308C3.32812 15.8134 9.86976 9.37923 17.959 9.37923Z" stroke="white"/>
</svg>
