<svg width="203" height="100" viewBox="0 0 203 100" fill="none" xmlns="http://www.w3.org/2000/svg">
<path d="M143.788 75.162C142.348 75.162 141.334 74.736 140.746 73.884C140.158 73.02 139.864 71.832 139.864 70.32V65.172C139.864 63.576 140.152 62.364 140.728 61.536C141.304 60.708 142.324 60.294 143.788 60.294C145.096 60.294 146.032 60.648 146.596 61.356C147.172 62.064 147.46 63.108 147.46 64.488V65.64H145.534V64.614C145.534 63.942 145.504 63.426 145.444 63.066C145.384 62.706 145.228 62.418 144.976 62.202C144.736 61.986 144.346 61.878 143.806 61.878C143.254 61.878 142.84 61.998 142.564 62.238C142.3 62.466 142.126 62.79 142.042 63.21C141.958 63.618 141.916 64.17 141.916 64.866V70.644C141.916 71.388 141.976 71.97 142.096 72.39C142.216 72.81 142.408 73.11 142.672 73.29C142.948 73.47 143.326 73.56 143.806 73.56C144.322 73.56 144.706 73.446 144.958 73.218C145.21 72.99 145.366 72.678 145.426 72.282C145.498 71.886 145.534 71.346 145.534 70.662V69.582H147.46V70.662C147.46 72.114 147.184 73.23 146.632 74.01C146.092 74.778 145.144 75.162 143.788 75.162ZM149.578 60.42H155.23V61.932H151.612V66.756H154.546V68.196H151.612V73.542H155.266V75H149.578V60.42ZM157.088 60.42H160.706C161.966 60.42 162.878 60.762 163.442 61.446C164.018 62.13 164.306 63.132 164.306 64.452C164.306 65.64 164 66.564 163.388 67.224C162.776 67.884 161.888 68.214 160.724 68.214H159.122V75H157.088V60.42ZM160.058 66.756C160.658 66.756 161.12 66.69 161.444 66.558C161.78 66.426 162.02 66.198 162.164 65.874C162.308 65.55 162.38 65.082 162.38 64.47C162.38 63.726 162.326 63.18 162.218 62.832C162.11 62.484 161.894 62.238 161.57 62.094C161.258 61.95 160.76 61.878 160.076 61.878H159.122V66.756H160.058ZM165.916 60.42H169.264C170.584 60.42 171.562 60.72 172.198 61.32C172.834 61.908 173.152 62.826 173.152 64.074C173.152 65.934 172.456 66.96 171.064 67.152C171.928 67.356 172.558 67.764 172.954 68.376C173.35 68.976 173.548 69.798 173.548 70.842C173.548 72.15 173.236 73.17 172.612 73.902C172 74.634 171.064 75 169.804 75H165.916V60.42ZM169.156 66.504C169.996 66.504 170.578 66.324 170.902 65.964C171.226 65.592 171.388 64.962 171.388 64.074C171.388 63.426 171.286 62.952 171.082 62.652C170.89 62.34 170.596 62.142 170.2 62.058C169.804 61.974 169.216 61.932 168.436 61.932H167.95V66.504H169.156ZM169.318 73.542C169.918 73.542 170.38 73.452 170.704 73.272C171.04 73.08 171.274 72.792 171.406 72.408C171.538 72.024 171.604 71.502 171.604 70.842C171.604 69.906 171.412 69.21 171.028 68.754C170.644 68.286 170.02 68.052 169.156 68.052H167.95V73.542H169.318ZM175.536 60.42H177.336V70.518L181.602 60.42H183.06V75H181.278V64.74L177.048 75H175.536V60.42ZM189.178 75.162C187.738 75.162 186.724 74.736 186.136 73.884C185.548 73.02 185.254 71.832 185.254 70.32V65.172C185.254 63.576 185.542 62.364 186.118 61.536C186.694 60.708 187.714 60.294 189.178 60.294C190.486 60.294 191.422 60.648 191.986 61.356C192.562 62.064 192.85 63.108 192.85 64.488V65.64H190.924V64.614C190.924 63.942 190.894 63.426 190.834 63.066C190.774 62.706 190.618 62.418 190.366 62.202C190.126 61.986 189.736 61.878 189.196 61.878C188.644 61.878 188.23 61.998 187.954 62.238C187.69 62.466 187.516 62.79 187.432 63.21C187.348 63.618 187.306 64.17 187.306 64.866V70.644C187.306 71.388 187.366 71.97 187.486 72.39C187.606 72.81 187.798 73.11 188.062 73.29C188.338 73.47 188.716 73.56 189.196 73.56C189.712 73.56 190.096 73.446 190.348 73.218C190.6 72.99 190.756 72.678 190.816 72.282C190.888 71.886 190.924 71.346 190.924 70.662V69.582H192.85V70.662C192.85 72.114 192.574 73.23 192.022 74.01C191.482 74.778 190.534 75.162 189.178 75.162Z" fill="#004794"/>
<path d="M84.572 74.964C83.252 74.964 82.304 74.61 81.728 73.902C81.164 73.194 80.882 72.15 80.882 70.77V70.05H82.808V70.626C82.808 71.286 82.838 71.802 82.898 72.174C82.958 72.534 83.114 72.828 83.366 73.056C83.618 73.272 84.014 73.38 84.554 73.38C85.094 73.38 85.496 73.26 85.76 73.02C86.036 72.78 86.216 72.45 86.3 72.03C86.384 71.61 86.426 71.052 86.426 70.356V68.052H83.87V66.72H86.426V64.596C86.426 63.852 86.366 63.27 86.246 62.85C86.126 62.43 85.928 62.13 85.652 61.95C85.388 61.77 85.022 61.68 84.554 61.68C84.038 61.68 83.654 61.794 83.402 62.022C83.15 62.25 82.988 62.562 82.916 62.958C82.844 63.354 82.808 63.894 82.808 64.578V65.208H80.882V64.56C80.882 63.108 81.158 61.998 81.71 61.23C82.262 60.462 83.216 60.078 84.572 60.078C86.012 60.078 87.02 60.51 87.596 61.374C88.184 62.226 88.478 63.408 88.478 64.92V70.068C88.478 71.676 88.19 72.894 87.614 73.722C87.038 74.55 86.024 74.964 84.572 74.964ZM90.648 60.42H92.682V66.72H96.426V60.42H98.46V75H96.426V68.178H92.682V75H90.648V60.42ZM100.918 60.42H106.57V61.932H102.952V66.756H105.886V68.196H102.952V73.542H106.606V75H100.918V60.42ZM108.428 60.42H112.046C113.306 60.42 114.218 60.762 114.782 61.446C115.358 62.13 115.646 63.132 115.646 64.452C115.646 65.64 115.34 66.564 114.728 67.224C114.116 67.884 113.228 68.214 112.064 68.214H110.462V75H108.428V60.42ZM111.398 66.756C111.998 66.756 112.46 66.69 112.784 66.558C113.12 66.426 113.36 66.198 113.504 65.874C113.648 65.55 113.72 65.082 113.72 64.47C113.72 63.726 113.666 63.18 113.558 62.832C113.45 62.484 113.234 62.238 112.91 62.094C112.598 61.95 112.1 61.878 111.416 61.878H110.462V66.756H111.398ZM117.256 60.42H122.8V61.932H119.29V75H117.256V60.42ZM128.106 75.162C126.678 75.162 125.652 74.76 125.028 73.956C124.416 73.14 124.11 71.964 124.11 70.428V64.902C124.11 63.39 124.422 62.244 125.046 61.464C125.67 60.684 126.69 60.294 128.106 60.294C129.522 60.294 130.536 60.69 131.148 61.482C131.772 62.262 132.084 63.402 132.084 64.902V70.446C132.084 71.958 131.772 73.122 131.148 73.938C130.524 74.754 129.51 75.162 128.106 75.162ZM128.106 73.56C128.862 73.56 129.372 73.338 129.636 72.894C129.9 72.45 130.032 71.778 130.032 70.878V64.488C130.032 63.6 129.9 62.946 129.636 62.526C129.372 62.094 128.862 61.878 128.106 61.878C127.338 61.878 126.822 62.094 126.558 62.526C126.294 62.946 126.162 63.6 126.162 64.488V70.878C126.162 71.778 126.294 72.45 126.558 72.894C126.822 73.338 127.338 73.56 128.106 73.56Z" fill="#004794"/>
<path d="M80.952 15.79H88.127L92.227 36.741L96.573 15.79H103.502L104.117 49H99.197L98.664 26.45L94.4 49H90.218L85.831 26.327L85.339 49H80.378L80.952 15.79ZM111.469 15.79H125.942V20.464H118.193V29.279H124.179V33.994H118.193V44.408H126.024V49H111.469V15.79ZM135.062 20.792H129.937V15.79H146.911V20.792H141.868V49H135.062V20.792ZM152.466 15.79H157.878V35.675L166.652 15.79H171.08V49H165.586V28.787L156.73 49H152.466V15.79ZM186.827 49.574C183.656 49.574 181.374 48.6993 179.98 46.95C178.586 45.2007 177.889 42.727 177.889 39.529V38.381H184.203C184.203 38.9003 184.217 39.3103 184.244 39.611C184.271 41.2783 184.463 42.4673 184.818 43.178C185.201 43.8887 185.898 44.244 186.909 44.244C187.92 44.244 188.604 43.875 188.959 43.137C189.314 42.3717 189.492 41.1553 189.492 39.488C189.492 37.7113 189.191 36.3857 188.59 35.511C187.989 34.6363 186.895 34.1717 185.31 34.117H183.588V29.812H185.187C186.827 29.7847 187.948 29.361 188.549 28.541C189.178 27.6937 189.492 26.3817 189.492 24.605C189.492 23.211 189.26 22.1587 188.795 21.448C188.358 20.7373 187.633 20.382 186.622 20.382C185.638 20.382 184.927 20.751 184.49 21.489C184.08 22.1997 183.848 23.2247 183.793 24.564V26.245H177.438V24.441C177.438 21.571 178.258 19.3433 179.898 17.758C181.538 16.1453 183.766 15.339 186.581 15.339C189.478 15.339 191.72 16.1043 193.305 17.635C194.918 19.1657 195.724 21.366 195.724 24.236C195.724 26.1493 195.328 27.7757 194.535 29.115C193.742 30.427 192.731 31.247 191.501 31.575C194.316 32.6137 195.724 35.1967 195.724 39.324C195.724 42.5493 195.013 45.064 193.592 46.868C192.171 48.672 189.916 49.574 186.827 49.574Z" fill="#DC1635"/>
<path fill-rule="evenodd" clip-rule="evenodd" d="M51 74.9989H17L0 44.3171L17 15.0071H51L68 44.3171L51 74.9989ZM34 16.3625C28.3514 16.3625 22.8296 18.042 18.1329 21.1886C13.4363 24.3352 9.77563 28.8076 7.614 34.0402C5.45236 39.2729 4.88677 45.0307 5.98876 50.5856C7.09076 56.1405 9.81084 61.243 13.805 65.2479C17.7992 69.2527 22.8881 71.9801 28.4282 73.085C33.9683 74.19 39.7108 73.6229 44.9294 71.4555C50.1481 69.288 54.6086 65.6176 57.7468 60.9084C60.885 56.1992 62.56 50.6626 62.56 44.9989C62.56 37.4041 59.551 30.1203 54.195 24.7499C48.8389 19.3796 41.5746 16.3625 34 16.3625ZM34 72.2716C28.6203 72.2716 23.3615 70.6721 18.8885 67.6754C14.4155 64.6786 10.9292 60.4192 8.87046 55.4357C6.81176 50.4523 6.27312 44.9686 7.32264 39.6783C8.37216 34.3879 10.9627 29.5283 14.7667 25.7142C18.5707 21.9 23.4173 19.3025 28.6936 18.2502C33.9698 17.1979 39.4388 17.738 44.409 19.8022C49.3791 21.8664 53.6272 25.362 56.616 29.847C59.6048 34.332 61.2 39.6049 61.2 44.9989C61.2 52.2321 58.3343 59.169 53.2333 64.2836C48.1323 69.3983 41.2139 72.2716 34 72.2716ZM34 23.1807C29.6963 23.1807 25.4892 24.4603 21.9108 26.8577C18.3324 29.2552 15.5433 32.6627 13.8964 36.6494C12.2494 40.6362 11.8185 45.0231 12.6581 49.2554C13.4977 53.4877 15.5701 57.3754 18.6133 60.4267C21.6565 63.478 25.5338 65.556 29.7548 66.3979C33.9758 67.2397 38.3511 66.8076 42.3272 65.1563C46.3033 63.5049 49.7018 60.7084 52.0928 57.1204C54.4838 53.5325 55.76 49.3141 55.76 44.9989C55.76 39.2124 53.4675 33.6628 49.3867 29.5711C45.3059 25.4794 39.7711 23.1807 34 23.1807ZM34 64.0898C30.2342 64.0898 26.5531 62.9702 23.4219 60.8724C20.2908 58.7747 17.8504 55.7931 16.4093 52.3047C14.9682 48.8163 14.5912 44.9777 15.3259 41.2745C16.0605 37.5712 17.8739 34.1695 20.5367 31.4996C23.1995 28.8297 26.5921 27.0115 30.2855 26.2748C33.9789 25.5382 37.8072 25.9163 41.2863 27.3612C44.7654 28.8062 47.739 31.2531 49.8312 34.3926C51.9233 37.532 53.04 41.2231 53.04 44.9989C53.04 50.0621 51.034 54.918 47.4633 58.4982C43.8926 62.0784 39.0497 64.0898 34 64.0898ZM34 27.2716C30.5032 27.2716 27.085 28.3113 24.1775 30.2592C21.2701 32.2071 19.004 34.9757 17.6658 38.215C16.3276 41.4542 15.9775 45.0186 16.6597 48.4573C17.3419 51.8961 19.0258 55.0548 21.4984 57.534C23.971 60.0132 27.1212 61.7015 30.5508 62.3856C33.9804 63.0696 37.5352 62.7185 40.7658 61.3768C43.9964 60.035 46.7577 57.7629 48.7004 54.8476C50.6431 51.9324 51.68 48.505 51.68 44.9989C51.68 40.2973 49.8173 35.7883 46.5016 32.4638C43.186 29.1393 38.689 27.2716 34 27.2716Z" fill="#004794"/>
</svg>
