<svg xmlns="http://www.w3.org/2000/svg" width="52" height="11" fill="none">
  <path fill="#000" d="M8.2 8H7.1V5.3c0-.5 0-1-.2-1.2-.2-.2-.4-.3-.8-.3-.3 0-.5.1-.7.4-.3.3-.4.7-.4 1V8H4V5.2c0-1-.4-1.4-1-1.4-.4 0-.6.1-.8.4-.2.3-.3.6-.3 1V8H.7V3H2v.8c.4-.6.9-1 1.6-1A1.5 1.5 0 0 1 4.9 4c.4-.7 1-1 1.7-1 1 0 1.6.7 1.6 2V8zm6.2-2.2H11c0 .5.2.8.4 1 .3.3.7.5 1.2.5s1-.2 1.4-.5v.9c-.4.3-1 .4-1.8.4-.7 0-1.3-.2-1.7-.7-.4-.4-.6-1-.6-1.9 0-.8.2-1.4.7-1.9.4-.5 1-.7 1.7-.7a2 2 0 0 1 1.6.6c.3.5.5 1 .5 1.9v.4zm-1-.8c0-.4-.2-.7-.4-1a1 1 0 0 0-.7-.3c-.4 0-.6.1-.9.4-.2.2-.3.5-.4 1h2.3zm7.3 3h-1.2v-.8c-.4.6-1 1-1.7 1-.6 0-1-.3-1.5-.8-.3-.4-.5-1-.5-1.8s.2-1.5.6-2A2 2 0 0 1 18 3c.7 0 1.2.3 1.5.8V.6h1.2V8zm-1.2-2.3v-.6c0-.4 0-.7-.3-1-.2-.2-.5-.3-.9-.3s-.8.1-1 .5c-.2.3-.4.7-.4 1.3 0 .5.2.9.4 1.2.2.3.5.4 1 .4.3 0 .6-.1.9-.4.2-.3.3-.7.3-1zM23.3 2l-.5-.2a.6.6 0 0 1-.2-.5l.2-.5.5-.1.5.1.2.5c0 .2 0 .3-.2.5l-.5.2zm.6 6h-1.2V3H24v5zm5.9 0h-1.1v-.8c-.4.6-.9 1-1.5 1-.5 0-1-.2-1.2-.5-.3-.3-.4-.6-.4-1 0-1 .5-1.5 1.6-1.7l1.5-.2c0-.7-.3-1-1-1-.6 0-1.2.1-1.6.5v-1c.5-.3 1.1-.4 1.8-.4 1.3 0 1.9.6 1.9 1.8V8zm-1.1-2.5l-1 .2-.8.2c-.2.1-.2.3-.2.6 0 .2 0 .4.2.6l.6.2c.3 0 .6-.2.9-.4.2-.2.3-.6.3-1v-.4zm7.2 1.8V8h-1.2V.6H36v3.3c.4-.7 1-1 1.7-1 .6 0 1.1.2 1.5.7.3.4.5 1 .5 1.8s-.2 1.5-.6 2a2 2 0 0 1-1.6.7c-.7 0-1.2-.3-1.5-.8zm0-2v.6c0 .4 0 .7.3 1 .2.2.5.3.9.3s.7-.1 1-.5c.2-.3.3-.8.3-1.3s0-1-.3-1.2a1 1 0 0 0-1-.4c-.3 0-.6.1-.9.4-.2.3-.3.7-.3 1zM45 8H44v-.8c-.4.6-.9 1-1.6 1-.5 0-.8-.2-1.1-.5-.3-.3-.4-.6-.4-1 0-1 .5-1.5 1.6-1.7l1.5-.2c0-.7-.4-1-1-1s-1.2.1-1.6.5v-1c.5-.3 1-.4 1.8-.4 1.2 0 1.9.6 1.9 1.8V8zM44 5.5l-1 .2-.8.2c-.2.1-.3.3-.3.6l.3.6.6.2c.3 0 .6-.2.8-.4.3-.2.4-.6.4-1v-.4zM51.4 3L49 8.8c-.4 1-1 1.6-2 1.6l-.5-.1v-1l.5.1c.4 0 .7-.2.9-.6l.3-.8-2-5h1.3l1.2 3.6V7h.1l.1-.4L50.2 3h1.2z"/>
</svg>
