<svg width="40" height="22" viewBox="0 0 40 22" fill="none" xmlns="http://www.w3.org/2000/svg">
<path d="M33.6 21.9487C37 20.3842 39.4666 16.8643 40 12.7186C40 12.4839 39.9334 12.2492 39.8666 12.0146C39.7333 11.8581 39.5333 11.7799 39.3333 11.7799L37.3333 11.7799L37.3333 10.2155L39.3333 10.2155C39.5333 10.2155 39.7333 10.1373 39.8666 9.98079C40 9.82432 40 9.58974 40 9.35508C39.4666 5.13115 37 1.61121 33.6 0.046759C33.3334 -0.0314314 33.1334 -0.0314313 32.9334 0.203231C32.8001 0.359704 32.6668 0.594368 32.6668 0.82903L32.6668 6.30446L26.6239 6.30446L26.6668 5.60048C26.7335 5.13115 26.4668 4.74001 26.0668 4.74001C25.6668 4.66182 25.3335 4.97468 25.3335 5.444L25.2814 6.30446L23.9572 6.30446L24.0001 5.60048C24.0668 5.13115 23.8001 4.74001 23.4001 4.74001C23.0001 4.66182 22.6668 4.97468 22.6668 5.444L22.6147 6.30446L21.2905 6.30446L21.3334 5.60048C21.4001 5.13115 21.1334 4.74001 20.7334 4.74001C20.3334 4.66182 20.0001 4.97468 20.0001 5.444L19.948 6.30446L18.6238 6.30446L18.6667 5.60048C18.7334 5.13115 18.4667 4.74001 18.0667 4.74001C17.6667 4.66182 17.3334 4.97468 17.3334 5.444L17.2813 6.30446L15.9571 6.30446L16 5.60048C16.0667 5.13115 15.8 4.74001 15.4 4.74001C15 4.66182 14.6667 4.97468 14.6667 5.444L14.6147 6.30446L13.2904 6.30446L13.3333 5.60048C13.4 5.13115 13.0667 4.74001 12.7333 4.74001C12.3333 4.66182 12 4.97468 12 5.444L11.948 6.30446L10.6237 6.30446L10.6666 5.60048C10.7333 5.13115 10.4666 4.74001 10.0666 4.74001C9.66664 4.66182 9.33329 4.97468 9.33329 5.444L9.28126 6.30446L7.95705 6.30446L7.99994 5.60048C8.06658 5.13115 7.79994 4.74001 7.39994 4.74001C6.99995 4.66182 6.66659 4.97468 6.66659 5.444L6.61456 6.30446L4.6666 6.30446C4.53324 6.30446 4.33325 6.38265 4.26661 6.46093L0.266639 10.372C0.0666385 10.5285 -4.70472e-07 10.7631 -4.8073e-07 10.9978C-4.90987e-07 11.2325 0.0666384 11.4671 0.266639 11.6236L4.26661 15.5347C4.33325 15.6129 4.53324 15.6912 4.6666 15.6912L6.04722 15.6912L5.99995 16.4733C5.99995 16.8645 6.26659 17.2555 6.59995 17.2555C6.99995 17.3337 7.3333 17.0209 7.3333 16.5515L7.38564 15.6911L8.71384 15.6911L8.66657 16.4732C8.66657 16.8644 8.93321 17.2554 9.26657 17.2554C9.66657 17.3336 9.99992 17.0208 9.99992 16.5514L10.0523 15.691L11.3805 15.691L11.3332 16.4732C11.3332 16.8643 11.5998 17.2553 11.9332 17.2553C12.3332 17.3335 12.6665 17.0207 12.6665 16.5513L12.7189 15.6909L14.0471 15.6909L13.9998 16.4731C13.9998 16.8642 14.2665 17.2552 14.5998 17.2552C14.9998 17.3334 15.3332 17.0206 15.3332 16.5513L15.3855 15.6908L16.7137 15.6908L16.6664 16.473C16.6664 16.8641 16.9331 17.2552 17.2664 17.2552C17.6664 17.3333 17.9998 17.0205 17.9998 16.5512L18.0521 15.6907L19.3803 15.6907L19.3331 16.4729C19.3331 16.864 19.5997 17.2551 19.933 17.2551C20.333 17.3333 20.6664 17.0204 20.6664 16.5511L20.7187 15.6906L22.0469 15.6906L21.9997 16.4728C21.9997 16.8639 22.2663 17.255 22.5997 17.255C22.9997 17.3332 23.333 17.0203 23.333 16.551L23.3854 15.6905L24.7136 15.6905L24.6663 16.4727C24.6663 16.8638 24.9329 17.2549 25.2663 17.2549C25.6663 17.3331 25.9996 17.0202 25.9996 16.5509L26.052 15.6904L32.6667 15.6904L32.6667 21.2441C32.6667 21.4788 32.8001 21.7135 33.0001 21.8699C33.1334 22.0269 33.4001 22.0269 33.6 21.9487ZM4.93364 14.1265L1.73366 10.9977L4.93364 7.86891L6.52042 7.86891L6.14214 14.1266L4.93364 14.1266L4.93364 14.1265ZM7.48119 14.1265L7.86213 7.86882L9.18696 7.86882L8.80868 14.1265L7.48119 14.1265ZM10.1479 14.1265L10.5288 7.86882L11.8537 7.86882L11.4754 14.1265L10.1479 14.1265ZM12.8145 14.1265L13.1954 7.86882L14.5203 7.86882L14.142 14.1265L12.8145 14.1265ZM15.4811 14.1265L15.8621 7.86882L17.1869 7.86882L16.8086 14.1265L15.4811 14.1265ZM18.1477 14.1265L18.5287 7.86882L19.8535 7.86882L19.4752 14.1265L18.1477 14.1265ZM20.8144 14.1265L21.1954 7.86882L22.5202 7.86882L22.1419 14.1265L20.8144 14.1265ZM23.4811 14.1265L23.862 7.86882L25.1868 7.86882L24.8086 14.1265L23.4811 14.1265ZM26.1478 14.1265L26.5287 7.86882L32.6667 7.86882L32.6667 14.1265L26.1478 14.1265ZM34 14.9088L34 7.08674L34 2.00234C36.2667 3.41032 37.9334 5.83514 38.5334 8.65109L36.6667 8.65109C36.2667 8.65109 36.0001 8.96395 36.0001 9.43327L36.0001 12.5621C36.0001 13.0314 36.2667 13.3443 36.6667 13.3443L38.5334 13.3443C37.9334 16.1602 36.2667 18.585 34 19.993L34 14.9088Z" fill="#004794"/>
</svg>
