<svg xmlns="http://www.w3.org/2000/svg" style="display:none"><defs><clipPath id="a"><path fill="#fff" transform="translate(.742 .606)" d="M0 0h30.183v30.183H0z"/></clipPath></defs><symbol id="bolts" viewBox="0 0 39 24"><path d="M39 22.5v-21c0-.825-.585-1.5-1.3-1.5h-3.9c-.715 0-1.3.675-1.3 1.5v6h-9.792l.042-.675c.065-.45-.195-.825-.585-.825-.39-.075-.715.225-.715.675l-.05.825h-1.292l.042-.675c.065-.45-.195-.825-.585-.825-.39-.075-.715.225-.715.675l-.05.825h-1.292l.042-.675c.065-.45-.195-.825-.585-.825-.39-.075-.715.225-.715.675l-.05.825h-1.292l.042-.675c.065-.45-.195-.825-.585-.825-.39-.075-.715.225-.715.675l-.05.825h-1.292l.042-.675c.065-.45-.195-.825-.585-.825-.39-.075-.715.225-.715.675L11 7.5H9.707l.042-.675C9.815 6.375 9.555 6 9.165 6c-.39-.075-.715.225-.715.675L8.4 7.5H7.107l.042-.675C7.215 6.375 6.955 6 6.565 6c-.39-.075-.715.225-.715.675L5.8 7.5H4.507l.042-.675C4.615 6.375 4.29 6 3.965 6c-.39-.075-.715.225-.715.675L3.2 7.5H1.3C.585 7.5 0 8.175 0 9v6c0 .825.585 1.5 1.3 1.5h1.346l-.046.75c0 .375.26.75.585.75.39.075.715-.224.715-.675l.051-.825h1.295l-.046.75c0 .375.26.75.585.75.39.075.715-.225.715-.675l.051-.825h1.295l-.046.75c0 .375.26.75.585.75.39.075.715-.225.715-.675l.051-.825h1.295l-.046.75c0 .375.26.75.585.75.39.075.715-.225.715-.675l.051-.825h1.295l-.046.75c0 .375.26.75.585.75.39.075.715-.225.715-.675l.051-.825h1.295l-.046.75c0 .375.26.75.585.75.39.075.715-.225.715-.675l.05-.825h1.296l-.046.75c0 .375.26.75.585.75.39.075.715-.225.715-.675l.05-.825h1.296l-.046.75c0 .375.26.75.585.75.39.075.715-.225.715-.675l.05-.825H32.5v6c0 .825.585 1.5 1.3 1.5h3.9c.715 0 1.3-.674 1.3-1.5zm-1.3-21v3h-3.9v-3h3.9zm0 4.5v12h-3.9V6h3.9zM1.3 15V9h1.807l-.369 6H1.3zm2.744 0l.371-6h1.292l-.369 6H4.044zm2.6 0l.371-6h1.292l-.369 6H6.644zm2.6 0l.371-6h1.292l-.369 6H9.244zm2.6 0l.372-6h1.291l-.369 6h-1.294zm2.6 0l.371-6h1.292l-.369 6h-1.294zm2.6 0l.371-6h1.292l-.369 6h-1.294zm2.6 0l.372-6h1.291l-.369 6h-1.294zm2.6 0l.371-6H32.5v6H22.244zM33.8 22.5v-3h3.9v3h-3.9z" fill="#004794"/></symbol><symbol id="clip" viewBox="0 0 13 15"><path d="M6.28 12.714l-5.006-6.77.553-.412 5.007 6.77c.66.888 2.01 1.085 2.897.425a2.073 2.073 0 0 0 .425-2.896l-5.42-7.325a1.382 1.382 0 0 0-1.93-.283 1.382 1.382 0 0 0-.284 1.931l5.42 7.324c.226.305.66.369.965.142a.691.691 0 0 0 .142-.965L4.04 3.884l.554-.412 5.007 6.77a1.381 1.381 0 0 1-2.214 1.648l-5.42-7.324a2.073 2.073 0 0 1 .425-2.897 2.073 2.073 0 0 1 2.897.425l5.42 7.325a2.763 2.763 0 0 1-.567 3.862 2.763 2.763 0 0 1-3.862-.567z" fill="#000"/></symbol><symbol id="gaika" viewBox="0 0 31 31"><g clip-path="url(#a)" fill="#004794"><path d="M2.707 22.844c0 .248.13.477.345.6l12.472 7.202a.688.688 0 0 0 .69 0l12.472-7.201a.69.69 0 0 0 .345-.6V8.44a.69.69 0 0 0-.345-.6L16.214.638a.688.688 0 0 0-.69 0L3.052 7.84a.689.689 0 0 0-.345.6v14.404zM15.869 2.032l11.783 6.802v13.61l-11.783 6.809-11.782-6.809V8.841l11.782-6.81z"/><path d="M15.87 23.83a8.188 8.188 0 1 0-5.795-2.4 8.141 8.141 0 0 0 5.795 2.4zm-4.829-13.016a6.816 6.816 0 1 1-1.993 4.828 6.769 6.769 0 0 1 1.993-4.829z"/></g></symbol><symbol id="logo" viewBox="0 0 121 47"><path opacity=".9" d="M74.394 38.081c-.72 0-1.227-.213-1.521-.639-.294-.432-.441-1.026-.441-1.782v-2.574c0-.798.144-1.404.432-1.818.288-.414.798-.621 1.53-.621.654 0 1.122.177 1.404.531.288.354.432.876.432 1.566v.576h-.963v-.513a5.03 5.03 0 0 0-.045-.774.7.7 0 0 0-.234-.432c-.12-.108-.315-.162-.585-.162-.276 0-.483.06-.621.18a.834.834 0 0 0-.261.486c-.042.204-.063.48-.063.828v2.889c0 .372.03.663.09.873.06.21.156.36.288.45.138.09.327.135.567.135.258 0 .45-.057.576-.171a.761.761 0 0 0 .234-.468c.036-.198.054-.468.054-.81v-.54h.963v.54c0 .726-.138 1.284-.414 1.674-.27.384-.744.576-1.422.576zm2.895-7.371h2.826v.756h-1.81v2.412h1.468v.72h-1.467v2.673h1.827V38h-2.844v-7.29zm3.755 0h1.809c.63 0 1.086.171 1.368.513.288.342.432.843.432 1.503 0 .594-.153 1.056-.46 1.386-.305.33-.75.495-1.331.495h-.801V38h-1.017v-7.29zm1.485 3.168c.3 0 .53-.033.693-.099a.631.631 0 0 0 .36-.342c.072-.162.108-.396.108-.702 0-.372-.027-.645-.081-.819a.57.57 0 0 0-.324-.369c-.156-.072-.405-.108-.747-.108h-.477v2.439h.468zm2.93-3.168h1.673c.66 0 1.15.15 1.467.45.318.294.477.753.477 1.377 0 .93-.348 1.443-1.044 1.539.432.102.747.306.945.612.198.3.297.711.297 1.233 0 .654-.156 1.164-.468 1.53-.306.366-.774.549-1.404.549h-1.944v-7.29zm1.62 3.042c.42 0 .71-.09.872-.27.162-.186.243-.501.243-.945 0-.324-.05-.561-.153-.711a.65.65 0 0 0-.44-.297c-.199-.042-.493-.063-.883-.063h-.243v2.286h.603zm.08 3.519c.3 0 .531-.045.693-.135a.765.765 0 0 0 .351-.432c.066-.192.1-.453.1-.783 0-.468-.097-.816-.289-1.044-.192-.234-.504-.351-.936-.351h-.603v2.745h.684zm3.109-6.561h.9v5.049L93.3 30.71h.729V38h-.891v-5.13L91.024 38h-.756v-7.29zm6.821 7.371c-.72 0-1.227-.213-1.52-.639-.295-.432-.442-1.026-.442-1.782v-2.574c0-.798.144-1.404.432-1.818.288-.414.798-.621 1.53-.621.654 0 1.122.177 1.404.531.288.354.432.876.432 1.566v.576h-.963v-.513a5.03 5.03 0 0 0-.045-.774.7.7 0 0 0-.234-.432c-.12-.108-.315-.162-.585-.162-.276 0-.483.06-.62.18a.834.834 0 0 0-.262.486c-.042.204-.063.48-.063.828v2.889c0 .372.03.663.09.873.06.21.156.36.288.45.138.09.327.135.567.135.258 0 .45-.057.576-.171a.761.761 0 0 0 .234-.468c.036-.198.054-.468.054-.81v-.54h.963v.54c0 .726-.138 1.284-.414 1.674-.27.384-.744.576-1.422.576zM43.286 37.982c-.66 0-1.134-.177-1.422-.531-.282-.354-.423-.876-.423-1.566v-.36h.963v.288c0 .33.015.588.045.774a.74.74 0 0 0 .234.441c.126.108.324.162.594.162.27 0 .471-.06.603-.18a.854.854 0 0 0 .27-.495 4.44 4.44 0 0 0 .063-.837v-1.152h-1.278v-.666h1.278v-1.062c0-.372-.03-.663-.09-.873-.06-.21-.159-.36-.297-.45-.132-.09-.315-.135-.549-.135-.258 0-.45.057-.576.171a.802.802 0 0 0-.243.468 4.755 4.755 0 0 0-.054.81v.315h-.963v-.324c0-.726.138-1.281.414-1.665.276-.384.753-.576 1.431-.576.72 0 1.224.216 1.512.648.294.426.441 1.017.441 1.773v2.574c0 .804-.144 1.413-.432 1.827-.288.414-.795.621-1.521.621zm3.038-7.272h1.017v3.15h1.872v-3.15h1.017V38h-1.017v-3.411h-1.872V38h-1.017v-7.29zm5.135 0h2.826v.756h-1.81v2.412h1.468v.72h-1.467v2.673h1.827V38h-2.844v-7.29zm3.755 0h1.809c.63 0 1.086.171 1.368.513.288.342.432.843.432 1.503 0 .594-.153 1.056-.459 1.386-.306.33-.75.495-1.332.495h-.801V38h-1.017v-7.29zm1.485 3.168c.3 0 .531-.033.693-.099a.631.631 0 0 0 .36-.342c.072-.162.108-.396.108-.702 0-.372-.027-.645-.081-.819a.57.57 0 0 0-.324-.369c-.156-.072-.405-.108-.747-.108h-.477v2.439h.468zm2.93-3.168H62.4v.756h-1.755V38h-1.017v-7.29zm5.424 7.371c-.714 0-1.227-.201-1.54-.603-.305-.408-.458-.996-.458-1.764v-2.763c0-.756.156-1.329.468-1.719.312-.39.822-.585 1.53-.585.708 0 1.215.198 1.52.594.313.39.469.96.469 1.71v2.772c0 .756-.156 1.338-.468 1.746-.312.408-.82.612-1.521.612zm0-.801c.378 0 .633-.111.765-.333.132-.222.198-.558.198-1.008v-3.195c0-.444-.066-.771-.198-.981-.132-.216-.387-.324-.765-.324-.384 0-.642.108-.774.324-.132.21-.198.537-.198.981v3.195c0 .45.066.786.198 1.008.132.222.39.333.774.333z" fill="#004794"/><path d="M41.512 7.99h3.675l2.1 10.731L49.513 7.99h3.549L53.377 25h-2.52l-.273-11.55L48.4 25h-2.142l-2.247-11.613L43.759 25h-2.541l.294-17.01zm15.63 0h7.414v2.394h-3.97v4.515h3.067v2.415h-3.066v5.334h4.01V25h-7.454V7.99zm12.085 2.562h-2.625V7.99h8.694v2.562h-2.583V25h-3.486V10.552zm8.914-2.562h2.772v10.185L85.407 7.99h2.268V25h-2.814V14.647L80.325 25h-2.184V7.99zm17.6 17.304c-1.624 0-2.793-.448-3.507-1.344-.714-.896-1.071-2.163-1.071-3.801v-.588h3.234c0 .266.007.476.02.63.015.854.113 1.463.295 1.827.196.364.553.546 1.07.546.519 0 .869-.189 1.05-.567.183-.392.274-1.015.274-1.869 0-.91-.154-1.589-.462-2.037-.308-.448-.868-.686-1.68-.714h-.882v-2.205h.819c.84-.014 1.414-.231 1.722-.651.322-.434.483-1.106.483-2.016 0-.714-.12-1.253-.357-1.617-.224-.364-.595-.546-1.113-.546-.504 0-.868.189-1.092.567-.21.364-.33.889-.357 1.575v.861h-3.255v-.924c0-1.47.42-2.611 1.26-3.423.84-.826 1.98-1.239 3.423-1.239 1.484 0 2.632.392 3.444 1.176.826.784 1.239 1.911 1.239 3.381 0 .98-.203 1.813-.61 2.499-.405.672-.923 1.092-1.553 1.26 1.442.532 2.163 1.855 2.163 3.969 0 1.652-.364 2.94-1.092 3.864-.728.924-1.883 1.386-3.465 1.386z" fill="#DC1635"/><path d="M9.448 38.186L.945 23.731 9.448 9.275H26.47l8.503 14.456-8.503 14.455H9.448z" fill="#004794" stroke="#004794"/><path d="M17.96 13.678c5.684 0 10.26 4.518 10.26 10.053 0 5.534-4.576 10.052-10.26 10.052-5.685 0-10.26-4.518-10.26-10.052 0-5.535 4.575-10.053 10.26-10.053z" stroke="#fff" stroke-width="2"/><path d="M17.957 16.096c4.324 0 7.797 3.436 7.797 7.635s-3.473 7.634-7.797 7.634-7.797-3.435-7.797-7.634c0-4.2 3.473-7.635 7.797-7.635z" fill="#fff" stroke="#fff" stroke-width="2"/><path d="M17.959 9.38c8.09 0 14.63 6.433 14.63 14.35 0 7.918-6.54 14.352-14.63 14.352s-14.63-6.434-14.63-14.351c0-7.918 6.54-14.352 14.63-14.352z" stroke="#fff"/></symbol><symbol id="mediabay"><path fill="#000" d="M8.2 8H7.1V5.3c0-.5 0-1-.2-1.2-.2-.2-.4-.3-.8-.3-.3 0-.5.1-.7.4-.3.3-.4.7-.4 1V8H4V5.2c0-1-.4-1.4-1-1.4-.4 0-.6.1-.8.4-.2.3-.3.6-.3 1V8H.7V3H2v.8c.4-.6.9-1 1.6-1A1.5 1.5 0 0 1 4.9 4c.4-.7 1-1 1.7-1 1 0 1.6.7 1.6 2v3zm6.2-2.2H11c0 .5.2.8.4 1 .3.3.7.5 1.2.5s1-.2 1.4-.5v.9c-.4.3-1 .4-1.8.4-.7 0-1.3-.2-1.7-.7-.4-.4-.6-1-.6-1.9 0-.8.2-1.4.7-1.9.4-.5 1-.7 1.7-.7a2 2 0 0 1 1.6.6c.3.5.5 1 .5 1.9v.4zm-1-.8c0-.4-.2-.7-.4-1a1 1 0 0 0-.7-.3c-.4 0-.6.1-.9.4-.2.2-.3.5-.4 1h2.3zm7.3 3h-1.2v-.8c-.4.6-1 1-1.7 1-.6 0-1-.3-1.5-.8-.3-.4-.5-1-.5-1.8s.2-1.5.6-2A2 2 0 0 1 18 3c.7 0 1.2.3 1.5.8V.6h1.2V8zm-1.2-2.3v-.6c0-.4 0-.7-.3-1-.2-.2-.5-.3-.9-.3s-.8.1-1 .5c-.2.3-.4.7-.4 1.3 0 .5.2.9.4 1.2.2.3.5.4 1 .4.3 0 .6-.1.9-.4.2-.3.3-.7.3-1zM23.3 2l-.5-.2a.6.6 0 0 1-.2-.5l.2-.5.5-.1.5.1.2.5c0 .2 0 .3-.2.5l-.5.2zm.6 6h-1.2V3H24v5zm5.9 0h-1.1v-.8c-.4.6-.9 1-1.5 1-.5 0-1-.2-1.2-.5-.3-.3-.4-.6-.4-1 0-1 .5-1.5 1.6-1.7l1.5-.2c0-.7-.3-1-1-1-.6 0-1.2.1-1.6.5v-1c.5-.3 1.1-.4 1.8-.4 1.3 0 1.9.6 1.9 1.8V8zm-1.1-2.5l-1 .2-.8.2c-.2.1-.2.3-.2.6 0 .2 0 .4.2.6l.6.2c.3 0 .6-.2.9-.4.2-.2.3-.6.3-1v-.4zm7.2 1.8V8h-1.2V.6H36v3.3c.4-.7 1-1 1.7-1 .6 0 1.1.2 1.5.7.3.4.5 1 .5 1.8s-.2 1.5-.6 2a2 2 0 0 1-1.6.7c-.7 0-1.2-.3-1.5-.8zm0-2v.6c0 .4 0 .7.3 1 .2.2.5.3.9.3s.7-.1 1-.5c.2-.3.3-.8.3-1.3s0-1-.3-1.2a1 1 0 0 0-1-.4c-.3 0-.6.1-.9.4-.2.3-.3.7-.3 1zM45 8h-1v-.8c-.4.6-.9 1-1.6 1-.5 0-.8-.2-1.1-.5-.3-.3-.4-.6-.4-1 0-1 .5-1.5 1.6-1.7l1.5-.2c0-.7-.4-1-1-1s-1.2.1-1.6.5v-1c.5-.3 1-.4 1.8-.4 1.2 0 1.9.6 1.9 1.8V8zm-1-2.5l-1 .2-.8.2c-.2.1-.3.3-.3.6l.3.6.6.2c.3 0 .6-.2.8-.4.3-.2.4-.6.4-1v-.4zM51.4 3L49 8.8c-.4 1-1 1.6-2 1.6l-.5-.1v-1l.5.1c.4 0 .7-.2.9-.6l.3-.8-2-5h1.3l1.2 3.6V7h.1l.1-.4L50.2 3h1.2z"/></symbol><symbol id="vints" viewBox="0 0 40 22"><path d="M33.6 21.949c3.4-1.565 5.867-5.085 6.4-9.23 0-.235-.067-.47-.133-.704a.697.697 0 0 0-.534-.235h-2v-1.564h2c.2 0 .4-.079.534-.235C40 9.824 40 9.59 40 9.355c-.533-4.224-3-7.744-6.4-9.308-.267-.078-.467-.078-.667.156-.133.157-.266.391-.266.626v5.475h-6.043l.043-.704c.066-.469-.2-.86-.6-.86-.4-.078-.733.235-.733.704l-.053.86h-1.324L24 5.6c.067-.469-.2-.86-.6-.86-.4-.078-.733.235-.733.704l-.052.86H21.29l.042-.704c.067-.469-.2-.86-.6-.86-.4-.078-.733.235-.733.704l-.052.86h-1.324l.043-.704c.066-.469-.2-.86-.6-.86-.4-.078-.734.235-.734.704l-.052.86h-1.324L16 5.6c.067-.469-.2-.86-.6-.86-.4-.078-.733.235-.733.704l-.052.86H13.29l.043-.704c.067-.469-.266-.86-.6-.86-.4-.078-.733.235-.733.704l-.052.86h-1.324l.043-.704c.066-.469-.2-.86-.6-.86-.4-.078-.734.235-.734.704l-.052.86H7.957L8 5.6c.067-.469-.2-.86-.6-.86-.4-.078-.733.235-.733.704l-.052.86H4.667c-.134 0-.334.079-.4.157l-4 3.911c-.2.156-.267.391-.267.626s.067.47.267.626l4 3.91c.066.079.266.157.4.157h1.38L6 16.473c0 .392.267.783.6.783.4.078.733-.235.733-.704l.053-.86h1.328l-.047.781c0 .391.266.782.6.782.4.079.733-.234.733-.704l.052-.86h1.329l-.048.782c0 .391.267.782.6.782.4.079.733-.234.733-.704l.053-.86h1.328l-.047.782c0 .391.267.782.6.782.4.078.733-.234.733-.704l.053-.86h1.328l-.048.782c0 .391.267.782.6.782.4.078.734-.235.734-.704l.052-.86h1.328l-.047.782c0 .391.267.782.6.782.4.078.733-.235.733-.704l.053-.86h1.328l-.047.782c0 .39.266.782.6.782.4.078.733-.235.733-.704l.052-.86h1.329l-.048.782c0 .39.267.782.6.782.4.078.734-.235.734-.704l.052-.86h6.615v5.553c0 .235.133.47.333.626.133.157.4.157.6.079zM4.934 14.126l-3.2-3.128 3.2-3.13H6.52l-.378 6.259H4.934zm2.547 0l.381-6.257h1.325l-.378 6.258H7.48zm2.667 0l.38-6.257h1.326l-.379 6.258h-1.327zm2.667 0l.38-6.257h1.325l-.378 6.258h-1.327zm2.666 0l.381-6.257h1.325l-.378 6.258H15.48zm2.667 0l.38-6.257h1.326l-.379 6.258h-1.327zm2.666 0l.381-6.257h1.325l-.378 6.258h-1.328zm2.667 0l.381-6.257h1.325l-.378 6.258H23.48zm2.667 0l.38-6.257h6.139v6.258h-6.52zM34 14.91V2.002c2.267 1.408 3.933 3.833 4.533 6.65h-1.866c-.4 0-.667.312-.667.781v3.13c0 .468.267.781.667.781h1.866c-.6 2.816-2.266 5.241-4.533 6.649v-5.084z" fill="#004794"/></symbol></svg>